<svg width="120" height="120" viewBox="0 0 120 120" fill="none" xmlns="http://www.w3.org/2000/svg">
<rect width="120" height="120" rx="30" fill="#191919"/>
<path d="M83.0897 98.9506V69.2417H89.898V98.9506H83.0897ZM89.898 82.425L87.546 81.2491C87.546 77.4942 88.3713 74.4614 90.0218 72.1507C91.7135 69.7988 94.2512 68.6228 97.6347 68.6228C99.1201 68.6228 100.461 68.891 101.658 69.4274C102.854 69.9638 103.968 70.8303 105 72.0269L100.544 76.6071C100.007 76.0294 99.409 75.6168 98.7488 75.3692C98.0886 75.1216 97.3252 74.9978 96.4587 74.9978C94.5606 74.9978 92.9927 75.5961 91.7548 76.7927C90.5169 77.9893 89.898 79.8668 89.898 82.425Z" fill="white"/>
<path d="M69.3629 98.9505V81.806C69.3629 79.8254 68.7234 78.1955 67.4442 76.9164C66.2064 75.6373 64.5971 74.9977 62.6166 74.9977C61.2962 74.9977 60.1202 75.2865 59.0886 75.8642C58.0571 76.4419 57.2525 77.2465 56.6748 78.2781C56.0971 79.3096 55.8083 80.4856 55.8083 81.806L53.1469 80.3205C53.1469 78.0511 53.642 76.0499 54.6323 74.3169C55.6226 72.5426 56.9842 71.1603 58.7173 70.17C60.4915 69.1385 62.4721 68.6227 64.659 68.6227C66.8872 68.6227 68.8678 69.1178 70.6008 70.1081C72.3338 71.0984 73.6955 72.4807 74.6858 74.255C75.6761 75.988 76.1712 78.0099 76.1712 80.3205V98.9505H69.3629ZM49 98.9505V54.3872H55.8083V98.9505H49Z" fill="white"/>
<rect x="35.2599" y="20.8579" width="6.62742" height="23.196" transform="rotate(45 35.2599 20.8579)" fill="white"/>
<rect x="18.8579" y="25.5442" width="6.62742" height="23.196" transform="rotate(-45 18.8579 25.5442)" fill="white"/>
<rect x="35.2599" y="49.4609" width="6.62742" height="23.196" transform="rotate(45 35.2599 49.4609)" fill="white"/>
<rect x="18.8579" y="54.1472" width="6.62742" height="23.196" transform="rotate(-45 18.8579 54.1472)" fill="white"/>
<rect x="35.2599" y="77.4609" width="6.62742" height="23.196" transform="rotate(45 35.2599 77.4609)" fill="white"/>
<rect x="18.8579" y="82.1472" width="6.62742" height="23.196" transform="rotate(-45 18.8579 82.1472)" fill="white"/>
</svg>
